# xmcd
#
# Track frame offsets: 
#        150
#        4557
#        23072
#        39416
#        55161
#        73580
#        88875
#        104840
#        117935
#        133905
#        149910
#        168675
#        187787
#        204925
#        220227
#        235337
#        252053
#        264819
#        283640
#        303432
#
# Disc length: 4254 seconds
#
# Revision: 0
# Processed by: cddbd v1.5.2PL0 Copyright (c) Steve Scherf et al.
# Submitted via: ExactAudioCopy v0.95a5
#
DISCID=24109c14
DTITLE=Backstreet Boys - Unbreakable
DYEAR=2008
DGENRE=Pop
TTITLE0=Intro
TTITLE1=Everything But Mine
TTITLE2=Inconsolable
TTITLE3=Something That I Already Know
TTITLE4=Helpless When She Smiles
TTITLE5=Any Other Way
TTITLE6=One In A Million
TTITLE7=Panic
TTITLE8=You Can Let Go
TTITLE9=Trouble Is
TTITLE10=Treat Me Right
TTITLE11=Love Will Keep You Up All Night
TTITLE12=Unmistakable
TTITLE13=Unsuspecting Sunday Afternoon
TTITLE14=Downpour
TTITLE15=In Pieces
TTITLE16=Nowhere To Go
TTITLE17=Inconsolable (Jason Nevins Remix)
TTITLE18=Helpless When She Smiles (Jason Nevins Radio Remix)
TTITLE19=Satellite
EXTD=
EXTT0=
EXTT1=
EXTT2=
EXTT3=
EXTT4=
EXTT5=
EXTT6=
EXTT7=
EXTT8=
EXTT9=
EXTT10=
EXTT11=
EXTT12=
EXTT13=
EXTT14=
EXTT15=
EXTT16=
EXTT17=
EXTT18=
EXTT19=
PLAYORDER=
